REM MUSICBRAINZ_ID "En1ATXvRKHKQhaES95fcMHQegtU-"
REM DISCID "A80AA00D"
REM MEDIA_TYPE "CD"
REM COMMENT "cyanrip 0.9.3.1-uf0.5"
REM DATE "2023-02-17"
REM RELEASE_ID "22d948c3-bfe8-4e3e-9d95-8dc113c7decb"
REM BARCODE "790692667727"
REM STATUS "Official"
REM TOTALDISCS "1"
REM DISC "1"
REM FORMAT "CD"
PERFORMER "Solence"
TITLE "Hope Is a Cult"
FILE "01 - Rain Down.flac" WAVE
  TRACK 01 AUDIO
    TITLE "Rain Down"
    PERFORMER "Solence"
    PREGAP 00:02:00
    INDEX 01 00:00:00
  TRACK 02 AUDIO
    TITLE "Best for You"
    PERFORMER "Solence"
    INDEX 00 04:07:29
FILE "02 - Best for You.flac" WAVE
    INDEX 01 00:00:00
  TRACK 03 AUDIO
    TITLE "Demons"
    PERFORMER "Solence"
    INDEX 00 03:40:63
FILE "03 - Demons.flac" WAVE
    INDEX 01 00:00:00
  TRACK 04 AUDIO
    TITLE "Waves"
    PERFORMER "Solence"
    INDEX 00 03:46:26
FILE "04 - Waves.flac" WAVE
    INDEX 01 00:00:00
  TRACK 05 AUDIO
    TITLE "Antidote"
    PERFORMER "Solence"
    INDEX 00 03:12:72
FILE "05 - Antidote.flac" WAVE
    INDEX 01 00:00:00
  TRACK 06 AUDIO
    TITLE "Claustrophobia"
    PERFORMER "Solence"
    INDEX 00 03:28:40
FILE "06 - Claustrophobia.flac" WAVE
    INDEX 01 00:00:00
  TRACK 07 AUDIO
    TITLE "_hope is a cult_"
    PERFORMER "Solence"
    INDEX 00 04:12:34
FILE "07 - _hope is a cult_.flac" WAVE
    INDEX 01 00:00:00
  TRACK 08 AUDIO
    TITLE "Better This Way"
    PERFORMER "Solence"
    INDEX 00 01:00:72
FILE "08 - Better This Way.flac" WAVE
    INDEX 01 00:00:00
  TRACK 09 AUDIO
    TITLE "nuBlood"
    PERFORMER "Solence feat. Fame on Fire"
    INDEX 00 04:01:04
FILE "09 - nuBlood.flac" WAVE
    INDEX 01 00:00:00
  TRACK 10 AUDIO
    TITLE "Life Goes On"
    PERFORMER "Solence"
    INDEX 00 03:21:02
FILE "10 - Life Goes On.flac" WAVE
    INDEX 01 00:00:00
  TRACK 11 AUDIO
    TITLE "Endless"
    PERFORMER "Solence"
    INDEX 00 02:30:50
FILE "11 - Endless.flac" WAVE
    INDEX 01 00:00:00
  TRACK 12 AUDIO
    TITLE "_a new hope_"
    PERFORMER "Solence"
    INDEX 00 03:41:07
FILE "12 - _a new hope_.flac" WAVE
    INDEX 01 00:00:00
  TRACK 13 AUDIO
    TITLE "Blood Sweat Tears"
    PERFORMER "Solence"
    INDEX 00 00:49:24
FILE "13 - Blood Sweat Tears.flac" WAVE
    INDEX 01 00:00:00
